M48
; DRILL file {KiCad 9.0.0} date 2025-05-07T08:12:05-0300
; FORMAT={-:-/ absolute / metric / decimal}
; #@! TF.CreationDate,2025-05-07T08:12:05-03:00
; #@! TF.GenerationSoftware,Kicad,Pcbnew,9.0.0
; #@! TF.FileFunction,Plated,1,2,PTH
FMAT,2
METRIC
; #@! TA.AperFunction,Plated,PTH,ViaDrill
T1C0.600
; #@! TA.AperFunction,Plated,PTH,ComponentDrill
T2C1.000
; #@! TA.AperFunction,Plated,PTH,ComponentDrill
T3C3.200
%
G90
G05
T1
X38.875Y-43.112
X38.875Y-47.112
X38.875Y-51.112
X38.875Y-55.112
X38.875Y-59.112
X38.875Y-63.112
X38.875Y-67.112
X38.875Y-71.112
X38.875Y-75.112
X38.875Y-79.112
X38.875Y-83.112
X38.875Y-87.112
X38.875Y-91.112
X38.875Y-95.112
X38.875Y-99.112
X38.875Y-103.112
X38.875Y-107.112
X38.875Y-111.112
X38.875Y-115.112
X38.875Y-119.112
X42.875Y-43.112
X42.875Y-119.112
X46.875Y-35.112
X46.875Y-39.112
X46.875Y-43.112
X46.875Y-119.112
X46.875Y-123.112
X46.875Y-127.112
X50.875Y-35.112
X50.875Y-127.112
X54.875Y-35.112
X54.875Y-127.112
X62.375Y-56.232
X62.515Y-60.182
X62.515Y-64.182
X62.515Y-68.182
X62.515Y-72.182
X62.515Y-76.182
X62.515Y-80.182
X62.515Y-84.182
X62.515Y-88.182
X62.515Y-92.182
X62.515Y-96.182
X62.515Y-100.182
X62.515Y-104.182
X64.875Y-35.112
X64.875Y-127.112
X66.855Y-56.262
X67.095Y-104.262
X68.875Y-35.112
X68.875Y-127.112
X70.855Y-56.262
X71.095Y-104.262
X72.875Y-35.112
X72.875Y-127.112
X74.855Y-56.262
X75.095Y-104.262
X76.875Y-35.112
X76.875Y-127.112
X78.855Y-56.262
X79.095Y-104.262
X80.875Y-35.112
X80.875Y-127.112
X82.855Y-56.262
X83.095Y-104.262
X84.875Y-35.112
X84.875Y-127.112
X86.855Y-56.262
X87.095Y-104.262
X88.875Y-35.112
X88.875Y-127.112
X90.855Y-56.262
X91.095Y-104.262
X92.875Y-35.112
X92.875Y-127.112
X94.855Y-56.262
X95.095Y-104.262
X96.875Y-35.112
X96.875Y-127.112
X98.855Y-56.262
X99.095Y-104.262
X100.875Y-35.112
X100.875Y-127.112
X102.855Y-56.262
X103.095Y-104.262
X104.875Y-35.112
X104.875Y-127.112
X107.495Y-56.282
X107.735Y-104.282
X107.785Y-60.132
X107.785Y-64.132
X107.785Y-68.132
X107.785Y-72.132
X107.785Y-76.132
X107.785Y-80.132
X107.785Y-84.132
X107.785Y-88.132
X107.785Y-92.132
X107.785Y-96.132
X107.785Y-100.132
X114.875Y-35.112
X114.875Y-127.112
X118.875Y-35.112
X118.875Y-127.112
X122.875Y-35.112
X122.875Y-39.112
X122.875Y-43.112
X122.875Y-119.112
X122.875Y-123.112
X122.875Y-127.112
X126.875Y-43.112
X126.875Y-119.112
X130.875Y-43.112
X130.875Y-47.112
X130.875Y-51.112
X130.875Y-55.112
X130.875Y-59.112
X130.875Y-63.112
X130.875Y-67.112
X130.875Y-71.112
X130.875Y-75.112
X130.875Y-79.112
X130.875Y-83.112
X130.875Y-87.112
X130.875Y-91.112
X130.875Y-95.112
X130.875Y-99.112
X130.875Y-103.112
X130.875Y-107.112
X130.875Y-111.112
X130.875Y-115.112
X130.875Y-119.112
T2
X78.72Y-81.065
T3
X60.175Y-35.312
X60.175Y-126.912
X109.575Y-35.312
X109.575Y-126.912
M30
